HIERARCHY
ROOT Hips
{
	OFFSET -3.958830 18.904000 13.208200
	CHANNELS 6 Xposition Yposition Zposition Zrotation Yrotation Xrotation 
	JOINT LHipJoint
	{
		OFFSET 0.000000 0.000000 0.000000
		CHANNELS 3 Zrotation Yrotation Xrotation
		JOINT LeftUpLeg
		{
			OFFSET 1.800000 -1.400000 0.085000
			CHANNELS 3 Zrotation Yrotation Xrotation
			JOINT LeftLeg
			{
				OFFSET 2.215000 -6.000000 0.000000
				CHANNELS 3 Zrotation Yrotation Xrotation
				JOINT LeftFoot
				{
					OFFSET 2.500000 -6.900000 0.000000
					CHANNELS 3 Zrotation Yrotation Xrotation
					JOINT LeftToeBase
					{
						OFFSET 0.200000 -0.500000 1.950000
						CHANNELS 3 Zrotation Yrotation Xrotation
						End Site
						{
							OFFSET 0.000000 0.000000 0.000000
						}
					}
				}
			}
		}
	}
	JOINT RHipJoint
	{
		OFFSET 0.000000 0.000000 0.000000
		CHANNELS 3 Zrotation Yrotation Xrotation
		JOINT RightUpLeg
		{
			OFFSET -1.800000 -1.400000 0.085000
			CHANNELS 3 Zrotation Yrotation Xrotation
			JOINT RightLeg
			{
				OFFSET -2.215000 -6.000000 0.000000
				CHANNELS 3 Zrotation Yrotation Xrotation
				JOINT RightFoot
				{
					OFFSET -2.500000 -6.900000 0.000000
					CHANNELS 3 Zrotation Yrotation Xrotation
					JOINT RightToeBase
					{
						OFFSET -0.200000 -0.500000 1.950000
						CHANNELS 3 Zrotation Yrotation Xrotation
						End Site
						{
							OFFSET 0.000000 0.000000 0.000000
						}
					}
				}
			}
		}
	}
	JOINT LowerBack
	{
		OFFSET 0.000000 0.000000 0.000000
		CHANNELS 3 Zrotation Yrotation Xrotation
		JOINT Spine
		{
			OFFSET -0.087000 1.940000 -0.288900
			CHANNELS 3 Zrotation Yrotation Xrotation
			JOINT Spine1
			{
				OFFSET 0.000000 1.950000 0.060000
				CHANNELS 3 Zrotation Yrotation Xrotation
				JOINT Neck
				{
					OFFSET 0.000000 0.000000 0.000000
					CHANNELS 3 Zrotation Yrotation Xrotation
					JOINT Neck1
					{
						OFFSET 0.000000 1.600000 0.340000
						CHANNELS 3 Zrotation Yrotation Xrotation
						JOINT Head
						{
							OFFSET 0.000000 1.667000 -0.240000
							CHANNELS 3 Zrotation Yrotation Xrotation
							End Site
							{
								OFFSET 0.000000 0.000000 0.000000
							}
						}
					}
				}
				JOINT LeftShoulder
				{
					OFFSET 0.000000 0.000000 0.000000
					CHANNELS 3 Zrotation Yrotation Xrotation
					JOINT LeftArm
					{
						OFFSET 2.700000 1.550000 -0.730000
						CHANNELS 3 Zrotation Yrotation Xrotation
						JOINT LeftForeArm
						{
							OFFSET 5.450000 0.000000 0.000000
							CHANNELS 3 Zrotation Yrotation Xrotation
							JOINT LeftHand
							{
								OFFSET 3.450000 0.000000 0.000000
								CHANNELS 3 Zrotation Yrotation Xrotation
								JOINT LeftHandIndex1
								{
									OFFSET 0.750000 0.000000 0.000000
									CHANNELS 3 Zrotation Yrotation Xrotation
									End Site
									{
										OFFSET 0.000000 0.000000 0.000000
									}
								}
							}
						}
					}
				}
				JOINT RightShoulder
				{
					OFFSET 0.000000 0.000000 0.000000
					CHANNELS 3 Zrotation Yrotation Xrotation
					JOINT RightArm
					{
						OFFSET -2.700000 1.550000 -0.730000
						CHANNELS 3 Zrotation Yrotation Xrotation
						JOINT RightForeArm
						{
							OFFSET -5.450000 0.000000 0.000000
							CHANNELS 3 Zrotation Yrotation Xrotation
							JOINT RightHand
							{
								OFFSET -3.450000 0.000000 0.000000
								CHANNELS 3 Zrotation Yrotation Xrotation
								JOINT RightHandIndex1
								{
									OFFSET -0.750000 0.000000 0.000000
									CHANNELS 3 Zrotation Yrotation Xrotation
									End Site
									{
										OFFSET 0.000000 0.000000 0.000000
									}
								}
							}
						}
					}
				}
			}
		}
	}
}
MOTION
Frames: 13
Frame Time: 0.016667
1.314350 17.045360 0.160630 -6.564717 3.767596 4.128802 -15.213157 13.217519 2.329101 1.987990 -2.019055 -10.208585 -5.202388 6.830215 22.469070 -0.312046 5.595192 3.088479 0.203210 -0.166510 -0.136940 18.415975 -9.712759 3.533431 -2.477253 4.613527 -34.004150 12.453765 -3.681714 7.168304 0.457746 -2.706540 3.695157 0.216970 1.099020 0.339530 -3.820229 -2.588656 -6.829675 11.266922 -5.921605 3.717714 -2.321300 -5.796307 7.678294 -0.849999 -1.099622 -4.054091 -3.588518 4.308816 26.233431 -0.907020 1.439670 9.876420 -0.614195 8.847872 0.084518 -20.774320 -8.846306 1.143081 42.500971 -67.271981 -24.789440 -4.247152 3.307911 -0.217890 0.879580 -0.777680 0.440770 2.629242 -10.777490 -0.212581 23.173511 -3.193975 -5.673031 -3.722060 38.535809 -0.819597 1.607745 -2.368305 -0.353310 0.236340 0.102890 0.000380 
1.348590 16.976180 0.176420 -6.539134 3.473132 4.573571 -15.206784 13.154621 2.342411 1.677865 -2.205826 -10.669251 -5.366548 7.009298 23.433148 -0.303015 5.753164 3.055534 0.168490 -0.210790 -0.158590 18.434382 -9.691882 3.570679 -1.969581 4.896335 -34.835372 12.454407 -3.791402 7.925249 0.498419 -2.754927 3.687901 0.214290 1.153910 0.349850 -3.853387 -2.500915 -6.835172 11.690079 -6.016185 3.848625 -2.475680 -5.924444 6.249101 -0.605054 -0.791229 -3.261122 -2.871254 4.144038 25.005029 -1.808420 1.923490 10.918630 -3.001355 9.125219 -0.706703 -19.131958 -8.764523 1.429797 45.223022 -68.366092 -26.544345 -4.321658 3.255834 -0.267030 0.943880 -0.835310 0.440500 4.617491 -11.280111 -0.675722 22.144365 -3.182214 -5.414305 -5.411095 40.483891 -1.242996 1.584529 -2.439596 -0.377230 0.229140 0.119320 -0.002030 
1.387060 16.895090 0.199820 -6.165992 3.349482 5.144048 -15.243134 13.132314 2.388253 1.054578 -2.411818 -11.083529 -5.579109 7.155066 24.180568 -0.347310 5.936174 3.013162 0.138620 -0.265260 -0.174010 18.414335 -9.610273 3.604409 -1.856798 5.159740 -36.274725 12.796694 -4.320916 10.316169 0.505941 -2.904470 3.618249 0.222210 1.224210 0.367400 -3.768351 -2.610110 -6.841387 11.072433 -6.226156 4.091400 -1.742664 -6.181361 4.686516 -0.485952 -0.270347 -2.330176 -1.919306 4.374023 23.924620 -2.075270 2.370930 11.042250 -5.607621 9.436225 -1.311849 -18.532299 -8.220643 1.501213 49.805267 -69.949830 -29.983320 -4.378921 3.093922 -0.265300 0.998820 -0.879530 0.438960 7.236430 -11.916431 -1.483484 21.293834 -2.434475 -5.230831 -8.140708 42.404339 -1.967267 1.540748 -2.462155 -0.430390 0.261340 0.160240 -0.017650 
1.429530 16.828930 0.233430 -5.530957 2.910548 5.961901 -15.284240 13.093392 2.461889 0.060661 -2.690814 -11.746389 -5.956752 7.382316 25.137093 -0.308749 6.103515 2.986567 0.108340 -0.309840 -0.199540 18.399131 -9.478602 3.664566 -1.803714 5.523045 -38.423228 13.091270 -5.214409 14.366158 0.492316 -3.207974 3.501097 0.210030 1.288860 0.374240 -3.678913 -2.790059 -6.858166 10.483636 -6.556379 4.272430 -0.792403 -6.478051 3.271405 -0.757506 -0.426089 -1.825603 -2.080463 4.929000 22.461362 -1.857450 2.641210 11.766150 -7.778629 9.889779 -1.302306 -20.565629 -6.968113 0.978903 58.127810 -71.355419 -36.168614 -4.345066 2.774147 -0.295210 1.038530 -0.923230 0.451080 10.105742 -12.096878 -2.084927 21.307035 -2.704330 -5.670310 -11.769446 46.126306 -3.252527 1.520567 -2.503223 -0.452930 0.272440 0.173240 -0.004900 
1.476270 16.782350 0.291120 -5.076887 2.034181 6.618960 -15.319099 13.057580 2.524258 -0.779270 -2.893986 -12.216016 -6.242864 7.623501 26.119296 -0.218316 6.210313 2.935937 0.054890 -0.353470 -0.220370 18.381397 -9.353020 3.750664 -1.879797 5.888711 -39.749958 14.445219 -6.407128 17.924323 0.421243 -3.662466 3.343993 0.153370 1.272080 0.394590 -3.592579 -2.945987 -6.928866 9.988976 -6.631419 4.566337 0.122945 -6.514197 2.528341 -0.645652 -0.202653 -1.935853 -1.656909 5.206881 22.114748 -2.620170 4.004170 12.302810 -8.074983 10.647931 -0.537850 -25.725506 -6.067044 0.574947 70.645406 -72.407992 -45.726084 -4.204510 2.103768 -0.312870 1.054940 -0.906990 0.426510 10.290631 -12.876602 -2.602855 25.035023 -1.614941 -6.375364 -13.713301 47.008948 -3.878321 1.530751 -2.440218 -0.423720 0.230050 0.187760 -0.005890 
1.546110 16.768010 0.331280 -4.967635 0.070612 7.053706 -15.279293 12.965447 2.617408 -1.327819 -3.093818 -12.707502 -7.252524 8.120675 27.019800 -0.152410 6.325933 2.847144 0.072650 -0.346250 -0.162280 18.424997 -9.300572 3.866089 -1.110458 6.594537 -40.765163 14.417300 -7.265496 21.559384 0.301587 -3.963950 3.219829 0.109630 1.159410 0.384190 -3.697231 -2.875470 -7.102924 11.093966 -6.644004 5.917241 -0.032435 -6.275593 1.637409 -0.577578 -0.723281 -2.352215 -2.385117 5.695972 22.321977 -2.664340 4.956780 11.153420 -8.277445 11.798889 0.468751 -31.741665 -5.232933 1.359610 85.021041 -72.184433 -57.968310 -3.997823 1.163627 -0.217650 0.964320 -0.816600 0.395420 10.157592 -13.478576 -3.009915 30.043208 -0.605233 -7.374335 -14.620392 48.155420 -4.163665 1.552735 -2.307987 -0.396770 0.200340 0.167570 -0.040660 
1.624530 16.783930 0.356900 -4.766785 -2.453192 7.114160 -15.237690 12.915207 2.750287 -1.952522 -3.212536 -13.085010 -8.491100 8.641791 27.385050 -0.096272 6.405035 2.766818 0.049570 -0.411570 -0.088800 18.453537 -9.249635 4.009388 -0.289322 7.420200 -41.474843 13.777627 -8.057074 25.622186 0.158859 -4.290154 3.072755 0.015630 1.015070 0.368580 -3.774677 -2.878767 -7.383274 12.113942 -6.259183 8.390263 -0.341233 -5.438069 0.561361 -0.328158 -1.504144 -3.132910 -3.656435 5.688583 23.422261 -3.252330 5.912890 9.811490 -9.590410 12.345673 1.440429 -36.614827 -4.860118 3.987949 98.642339 -70.678890 -73.663071 -4.162746 0.659234 -0.066200 0.837140 -0.699650 0.331180 10.671030 -13.187739 -2.759694 35.162836 -1.197852 -8.973063 -15.353426 49.481461 -4.431163 1.595085 -2.112834 -0.388750 0.169320 0.170150 -0.101070 
1.706940 16.812690 0.348340 -4.019761 -5.533175 7.065816 -15.256024 12.873260 2.946158 -3.148398 -3.499117 -14.074004 -9.886080 9.218684 27.987967 -0.004410 6.462159 2.684200 0.080410 -0.396020 -0.003440 18.428400 -9.124318 4.146744 0.407533 8.274544 -42.094181 12.649492 -8.481579 29.415981 0.003497 -4.583259 2.939945 -0.045590 0.842540 0.354520 -3.682880 -3.052815 -7.689522 11.567033 -5.719651 11.381304 0.356888 -4.421972 0.170823 -0.248690 -2.551178 -4.296566 -5.501318 5.837053 24.660176 -3.787370 6.759210 7.773280 -11.612191 11.482655 2.674597 -41.050178 -2.736129 5.108957 117.386388 -69.449721 -103.532146 -4.581022 2.412874 0.065750 0.691740 -0.565200 0.290080 12.458088 -11.061494 -2.273337 38.645172 -1.528311 -10.558528 -17.072947 50.472085 -5.216080 1.644412 -1.937442 -0.342570 0.119040 0.132780 -0.142700 
1.796770 16.841960 0.332660 -3.260783 -7.571076 6.111984 -15.291364 12.918260 3.226304 -3.654996 -4.252177 -15.200033 -11.480361 10.112062 29.908471 0.085107 6.791470 2.498037 0.132270 -0.361720 0.123230 18.351967 -9.071744 4.146869 0.130489 8.288288 -41.118535 12.907333 -9.137102 31.465902 -0.168353 -4.801271 2.849300 -0.089800 0.638440 0.317380 -3.488664 -3.365930 -8.058486 10.702349 -5.607367 16.177741 0.581435 -3.686967 -1.460663 0.405994 -3.089739 -4.926997 -6.756635 5.716958 26.925634 -4.943960 7.898720 3.269000 -14.327756 10.681565 2.447108 -43.828590 -0.592845 1.841066 141.332921 -71.123986 -136.896530 -4.220125 3.456776 0.266420 0.516170 -0.396430 0.238640 13.909393 -9.586020 -1.661615 42.434661 -1.739657 -11.968168 -16.081447 50.432009 -4.889075 1.690894 -1.731658 -0.326270 0.115470 0.091130 -0.217670 
1.887290 16.854530 0.324370 -2.688593 -9.704561 5.420982 -15.332784 12.817607 3.561892 -3.347980 -5.582104 -17.405257 -14.190700 11.776544 32.941786 0.280547 7.521587 2.195910 0.164730 -0.351480 0.243500 18.293377 -9.003386 4.084023 0.196897 8.327964 -39.922174 12.974708 -9.507697 32.732484 -0.284071 -4.909288 2.791308 -0.134030 0.473070 0.287790 -3.323456 -3.500203 -8.356119 10.023842 -5.336797 20.319057 0.613302 -2.842592 -2.590108 1.183739 -3.157282 -5.503045 -7.075649 5.297878 28.796367 -6.441750 9.003800 -0.348070 -17.310824 9.284243 2.337565 -45.847190 1.180526 -0.836461 164.108097 -69.843041 -167.081266 -3.933757 3.547838 0.399190 0.380820 -0.274950 0.184870 15.345369 -7.764828 -0.978571 45.679301 -1.730438 -12.947702 -14.235286 48.925312 -4.245386 1.771355 -1.581035 -0.309300 0.095410 0.051410 -0.279360 
1.974860 16.821970 0.300340 -2.130257 -12.203229 5.625556 -15.411104 12.435279 4.056013 -2.506051 -7.925202 -22.003606 -18.236023 14.488968 37.408761 0.570155 8.819976 1.739678 0.158480 -0.373930 0.290060 18.261782 -8.738166 4.037634 0.309587 8.737580 -39.876079 13.526316 -10.045006 34.049295 -0.380977 -5.120319 2.710088 -0.165700 0.407580 0.267540 -3.185625 -3.564253 -8.662095 9.246318 -4.863788 23.624574 0.934444 -1.835603 -3.714703 1.503961 -3.419163 -5.833037 -7.535611 4.875043 29.114357 -7.226210 9.257020 -3.191460 -18.776004 8.870151 2.138001 -48.728995 1.952232 -1.777152 -178.398439 -67.433987 167.364893 -3.795706 3.461302 0.490750 0.310420 -0.215890 0.152400 16.144070 -6.692990 -0.527666 48.664917 -1.838617 -13.539042 -10.644509 48.113798 -3.002002 1.813403 -1.478799 -0.325600 0.112560 0.052170 -0.314260 
2.068070 16.739460 0.304540 -2.171745 -14.129265 6.548703 -15.434550 11.897708 4.573018 -0.217939 -10.214838 -27.178392 -22.649772 17.684970 41.569825 0.911793 10.253167 1.266820 0.180320 -0.349430 0.332650 18.306396 -8.498064 3.967920 0.258828 9.073701 -39.983808 14.874802 -10.641877 34.076050 -0.455573 -5.234691 2.663206 -0.164960 0.352420 0.252080 -3.281642 -3.337983 -8.904827 10.472252 -5.011623 25.308684 0.031725 -1.342576 -4.439170 1.760986 -3.815292 -5.910881 -8.111431 4.642670 28.975615 -7.776020 9.531770 -5.458900 -19.216428 9.286958 1.754198 -51.840707 2.088319 -1.397663 -167.076716 -64.042012 148.666269 -3.719027 3.425681 0.543400 0.258750 -0.167520 0.142800 15.852301 -6.730886 -0.499275 52.685166 -1.513179 -13.547531 -6.241110 45.146827 -1.481437 1.880500 -1.408808 -0.326270 0.120660 0.030800 -0.332560 
2.161570 16.629610 0.326410 -1.919885 -15.618272 7.187776 -15.506347 11.438914 5.047650 2.511436 -11.971725 -31.841986 -26.068558 21.137835 46.027391 1.299473 11.691872 0.814611 0.230320 -0.285080 0.387610 18.312301 -8.195646 3.956527 0.095757 9.601238 -41.309531 14.157637 -10.967578 36.092084 -0.551939 -5.462155 2.565003 -0.156380 0.275680 0.260990 -3.256402 -3.280681 -9.162593 10.658123 -4.957836 26.946133 0.063024 -0.772145 -5.220683 2.025182 -4.101274 -5.877771 -8.606993 4.458817 29.346705 -8.599470 9.969960 -7.627080 -20.456072 9.365191 1.408862 -55.204947 2.390244 -0.672163 -159.877258 -60.276417 134.690754 -3.663421 3.459835 0.574950 0.204830 -0.099830 0.140350 16.464355 -6.289081 -0.676250 54.561460 -0.899036 -12.838028 -3.463321 40.199741 -0.608994 1.976230 -1.346583 -0.286320 0.096350 -0.009940 -0.338920 
